<svg width="177" height="65" viewBox="0 0 177 65" fill="none" xmlns="http://www.w3.org/2000/svg">
<path d="M45.8972 0.235452C45.2664 0.217968 44.986 0.410286 44.8283 1.03969C43.6017 5.8826 30.9855 52.9305 30.2145 55.9027C30.0743 55.4831 29.9692 55.2558 29.9166 55.046C27.7964 47.6156 25.6936 40.2026 23.5909 32.7721C23.4683 32.3176 23.258 32.1427 22.7674 32.1427C21.3656 32.1777 19.9813 32.1777 18.5795 32.1427C18.1064 32.1252 17.8961 32.2826 17.7559 32.7547C16.1088 38.6291 14.4442 44.5035 12.7795 50.378C12.2889 52.1263 11.7807 53.8921 11.2726 55.6405C11.22 55.6405 11.1499 55.623 11.0973 55.623C10.6768 54.0495 9.4327 49.0492 7.90823 43.0699C7.75053 42.4405 7.47017 42.2656 6.83936 42.2831C5.13967 42.3181 3.4575 42.3006 1.75781 42.3006C1.53002 42.3006 1.2847 42.3356 0.986816 42.3531C4.01822 53.1054 4.33363 53.6299 7.32999 64.2948C9.80067 64.2948 12.1837 64.2948 14.6019 64.2948C16.5994 57.3014 18.597 50.343 20.5771 43.3671C20.6296 43.3671 20.6822 43.3846 20.7348 43.3846C22.7499 50.3605 24.7474 57.3364 26.745 64.2948C29.2157 64.2948 31.5988 64.2948 34.0169 64.2948C37.0308 53.5949 48.7008 11.0402 51.7322 0.270419C49.7346 0.252935 47.8071 0.287902 45.8972 0.235452Z" fill="#E63C32"/>
<path d="M143.269 43.9425C143.093 43.7852 143.006 43.7327 142.953 43.6803C139.869 40.1836 134.087 39.9388 130.319 42.2117C123.451 46.3727 122.522 56.6005 128.48 62.1078C132.755 66.0591 139.729 65.8318 143.076 61.898C143.093 61.8805 143.163 61.8805 143.304 61.863C143.304 62.6673 143.304 63.4715 143.304 64.2932C145.319 64.2932 147.229 64.2932 149.191 64.2932C149.191 56.618 149.191 49.0127 149.191 41.4249C147.211 41.4249 145.284 41.4249 143.269 41.4249C143.269 42.2466 143.269 43.0334 143.269 43.9425ZM136.873 59.293C133.158 59.293 130.512 56.6355 130.477 52.8765C130.442 49.1001 133.123 46.3727 136.855 46.3727C140.623 46.3727 143.269 49.0477 143.269 52.8416C143.286 56.6355 140.64 59.293 136.873 59.293Z" fill="black"/>
<path d="M61.2746 43.9499C61.0818 43.7925 61.0117 43.7401 60.9592 43.6701C57.8752 40.1909 52.1628 39.9636 48.448 42.1491C41.2287 46.415 40.4753 57.2373 47.0287 62.5522C51.3217 66.0489 57.8927 65.6293 61.0117 61.9578C61.0643 61.9053 61.1519 61.8704 61.3271 61.783C61.3271 62.6746 61.3271 63.4439 61.3271 64.2656C63.3247 64.2656 65.2522 64.2656 67.2147 64.2656C67.2147 56.6253 67.2147 49.0201 67.2147 41.3973C65.2347 41.3973 63.3072 41.3973 61.2921 41.3973C61.2746 42.254 61.2746 43.0407 61.2746 43.9499ZM54.8788 59.3003C51.1465 59.3003 48.5181 56.6603 48.5181 52.8839C48.5006 49.055 51.1115 46.3801 54.8613 46.3626C58.6286 46.3626 61.2746 49.0201 61.2746 52.814C61.2746 56.6428 58.6462 59.3003 54.8788 59.3003Z" fill="#E63C32"/>
<path d="M176.247 50.9797C176.247 50.158 176.212 49.3362 176.124 48.532C175.879 46.4515 175.09 44.6157 173.618 43.0946C170.324 39.7203 163.49 40.035 160.897 43.5842C160.862 43.6366 160.774 43.6366 160.634 43.724C160.634 42.9373 160.634 42.203 160.634 41.4687C158.601 41.4687 156.656 41.4687 154.729 41.4687C154.729 49.1264 154.729 56.7142 154.729 64.302C156.709 64.302 158.637 64.302 160.634 64.302C160.634 63.9699 160.634 63.6726 160.634 63.3754C160.634 59.5466 160.634 55.7352 160.634 51.9063C160.634 50.5426 160.862 49.2313 161.685 48.0949C162.789 46.5738 164.98 45.892 167.065 46.4165C168.905 46.8711 169.956 48.1124 170.236 50.1929C170.289 50.6125 170.307 51.0321 170.307 51.4517C170.307 55.4554 170.307 59.4417 170.307 63.4454C170.307 63.7251 170.307 64.0223 170.307 64.3195C172.339 64.3195 174.249 64.3195 176.264 64.3195C176.264 63.9699 176.264 63.7076 176.264 63.4279C176.247 59.2668 176.247 55.1232 176.247 50.9797Z" fill="black"/>
<path d="M118.532 51.8628C117.253 51.2684 115.886 50.8662 114.537 50.4117C113.433 50.027 112.311 49.7123 111.225 49.2927C110.594 49.048 110.156 48.5584 110.191 47.8066C110.244 47.0024 110.734 46.5653 111.435 46.2856C113.082 45.6387 115.062 46.2156 116.114 47.6318C116.271 47.8416 116.429 48.0689 116.604 48.3311C118.287 47.422 119.934 46.5303 121.633 45.6037C121.441 45.289 121.3 45.0617 121.143 44.8344C118.374 40.8482 112.381 39.502 107.878 41.8797C105.372 43.2085 104.076 45.289 104.093 48.1563C104.111 50.9187 105.583 52.7195 108.018 53.786C109.157 54.293 110.349 54.6252 111.523 55.0448C112.679 55.4469 113.836 55.7966 114.975 56.2511C115.606 56.4959 116.044 57.0029 116.009 57.7547C115.956 58.5415 115.5 59.1184 114.765 59.2583C113.748 59.4506 112.697 59.5905 111.681 59.4856C110.016 59.3107 108.912 58.2442 108.264 56.6532C106.546 57.6148 104.882 58.5415 103.182 59.4856C103.217 59.6429 103.217 59.7303 103.252 59.7828C103.322 59.9401 103.41 60.0975 103.498 60.2374C104.637 62.213 106.301 63.6117 108.474 64.276C112.084 65.395 115.641 65.325 119.005 63.3669C123.035 60.9891 123.438 54.1531 118.532 51.8628Z" fill="black"/>
<path d="M95.7609 34.9394C94.0087 35.4639 92.344 35.9884 90.6794 36.4429C90.0135 36.6178 89.7507 36.88 89.7857 37.6143C89.8558 38.8382 89.8033 40.0795 89.8033 41.3558C88.4365 41.3558 87.1924 41.3558 85.8607 41.3558C85.8607 41.3558 85.8607 41.3558 85.8607 41.3383C84.0734 41.3383 82.3912 41.3383 80.639 41.3383C80.639 39.1703 80.639 37.1073 80.639 34.9219C78.8166 35.4639 77.0819 36.0058 75.3472 36.4779C74.804 36.6178 74.6462 36.88 74.6638 37.422C74.6988 38.6983 74.6813 39.9921 74.6813 41.3558C73.297 41.3558 72.0179 41.3558 70.7212 41.3558C70.7212 43.279 70.7212 45.1322 70.7212 47.0379C72.0354 47.0379 73.297 47.0379 74.6813 47.0379C74.6813 47.4225 74.6813 47.6848 74.6813 47.9645C74.6813 50.7619 74.6638 53.5767 74.6988 56.374C74.7163 57.4405 74.804 58.507 74.9967 59.556C75.4172 61.7939 76.7139 63.315 78.9218 63.9968C81.1822 64.6787 83.4776 64.5563 85.8081 64.3115C85.8081 62.5107 85.8081 60.7624 85.8081 58.9616C84.8269 58.9616 83.9157 59.014 82.987 58.9441C81.3223 58.8392 80.6565 58.1399 80.639 56.4964C80.6214 53.5592 80.639 50.6395 80.639 47.7023C80.639 47.5099 80.674 47.3351 80.6915 47.0379C80.9894 47.0379 88.4365 47.0379 89.7857 47.0379C89.7857 47.947 89.7857 48.7338 89.7857 49.538C89.8208 52.5452 89.7682 55.5523 89.9435 58.542C90.0661 60.8148 91.0474 62.738 93.2903 63.6996C95.7609 64.7486 98.3368 64.5388 100.895 64.3115C100.895 62.4758 100.895 60.7449 100.895 58.9616C99.9313 58.9616 99.0377 58.9965 98.144 58.9616C96.4093 58.8742 95.7434 58.1399 95.7434 56.409C95.7434 53.5242 95.7434 50.6395 95.7434 47.7722C95.7434 47.5624 95.7785 47.3351 95.796 47.0379C97.5307 47.0379 99.1954 47.0379 100.895 47.0379C100.895 45.0972 100.895 43.2615 100.895 41.3208C99.1603 41.3208 97.4782 41.3208 95.7259 41.3208C95.7609 39.1703 95.7609 37.0898 95.7609 34.9394Z" fill="#E63C32"/>
</svg>
